# xmcd
#
# Track frame offsets:
#	150
#	3652
#	17307
#	42950
#	50375
#	73007
#	93650
#	100929
#	122079
#	136495
#	150400
#	164192
#	180272
#	201610
#	216777
#	236052
#
# Disc length: 3437 seconds
#
# Revision: 0
# Processed by: cddbd v1.5.1PL0 Copyright (c) Steve Scherf et al.
# Submitted via: dBpowerAMP V4.0
#
DISCID=df0d6b10
DTITLE=John the Revelator - Wild Blues
DYEAR=1900
DGENRE=Blues
TTITLE0=John The Revelator
TTITLE1=I Can't Stop Lovin' You
TTITLE2=Worried Dreams
TTITLE3=Charlie's Drive-In
TTITLE4=Talk To Me, Baby
TTITLE5=Personal Manager
TTITLE6=Wild Blues
TTITLE7=Bleeding Heart
TTITLE8=No Woman
TTITLE9=Homework
TTITLE10=Yeah
TTITLE11=Rockin' Squirrel
TTITLE12=One Track Mind
TTITLE13=I Can't Stop Lovin' You
TTITLE14=Little Red Rooster
TTITLE15=Worried Dreams
EXTD=
EXTT0=
EXTT1=
EXTT2=
EXTT3=
EXTT4=
EXTT5=
EXTT6=
EXTT7=
EXTT8=
EXTT9=
EXTT10=
EXTT11=
EXTT12=
EXTT13=
EXTT14=
EXTT15=
PLAYORDER=
